# xmcd CD database file
#
# Track frame offsets:
#	150
#	2550
#	13182
#	23885
#	30580
#	43845
#	57817
#	68767
#	71905
#	78497
#	91865
#	104457
#	113532
#	128357
#
# Disc length: 1833 seconds
#
# Revision: 0
# Processed by: cddbd v1.4PL0 Copyright (c) Steve Scherf et al.
# Submitted via: CDex 1.51
#
DISCID=a907270e
DTITLE=Garment of Praise - The Wonderous Gift is Given
DYEAR=1998
DGENRE=Christmas
TTITLE0=We Wish You a Blessed Christmas
TTITLE1=Angels We Have Heard On High
TTITLE2=Silent Night! Holy Night!
TTITLE3=Joy to the World
TTITLE4=The First Noel
TTITLE5=The Gift
TTITLE6=A Christmas Light
TTITLE7=We Wish You A Blessed Christmas (reprise)
TTITLE8=God Rest Ye Merry Gentlemen
TTITLE9=O Little Town Of Bethlehem
TTITLE10=Christmas At Calvary
TTITLE11=Good News
TTITLE12=The Little Drummer Boy
TTITLE13=Away In A Manger
EXTD=YEAR: 1998
EXTT0=
EXTT1=
EXTT2=
EXTT3=
EXTT4=
EXTT5=
EXTT6=
EXTT7=
EXTT8=
EXTT9=
EXTT10=
EXTT11=
EXTT12=
EXTT13=
PLAYORDER=
